<?xml version="1.0" standalone="no"?>
<!DOCTYPE svg PUBLIC "-//W3C//DTD SVG 20010904//EN"
 "http://www.w3.org/TR/2001/REC-SVG-20010904/DTD/svg10.dtd">
<svg version="1.0" xmlns="http://www.w3.org/2000/svg"
 width="160.000000pt" height="160.000000pt" viewBox="0 0 160.000000 160.000000"
 preserveAspectRatio="xMidYMid meet">
<metadata>
Created by potrace 1.14, written by Peter Selinger 2001-2017
</metadata>
<g transform="translate(0.000000,160.000000) scale(0.100000,-0.100000)"
fill="#000000" stroke="none">
<path d="M786 1515 c-29 -68 -86 -205 -86 -208 0 -1 47 -3 104 -3 l105 -2 -11
27 c-23 56 -35 87 -47 116 -6 17 -20 48 -30 70 l-18 40 -17 -40z"/>
<path d="M264 1304 c6 -21 84 -213 91 -222 2 -2 37 31 79 72 43 42 70 76 61
76 -8 0 -23 4 -33 10 -9 5 -59 27 -110 49 l-94 40 6 -25z"/>
<path d="M1270 1296 c-41 -18 -92 -40 -114 -49 -21 -9 -42 -17 -47 -17 -16 0
-10 -8 66 -85 62 -62 76 -73 81 -58 3 10 23 59 44 108 37 88 54 136 48 134 -2
-1 -37 -16 -78 -33z"/>
<path d="M738 1235 c-2 -2 -18 -5 -36 -8 -49 -8 -152 -60 -199 -101 -55 -48
-117 -142 -139 -212 -17 -56 -23 -169 -12 -229 15 -80 72 -181 138 -245 26
-25 37 -45 39 -70 6 -77 79 -162 156 -181 41 -10 44 -14 74 -85 17 -40 31 -78
31 -84 0 -38 51 49 75 128 3 12 12 22 18 23 7 1 127 2 267 3 247 1 256 2 300
24 93 49 134 114 134 212 0 48 -6 76 -22 107 -26 49 -86 103 -133 118 -25 9
-35 18 -37 36 -3 22 6 28 88 63 49 21 90 41 90 45 0 7 -243 107 -250 102 -3
-2 -3 -8 -1 -15 2 -6 4 -23 6 -38 l3 -28 -38 28 c-21 15 -38 34 -37 42 1 20
-33 111 -50 131 -7 8 -13 19 -13 23 0 15 -76 97 -113 121 -102 69 -153 86
-264 90 -40 1 -73 1 -75 0z"/>
<path d="M256 873 c-3 -4 -12 -8 -19 -9 -18 -2 -169 -66 -189 -79 -17 -11 40
-39 230 -112 10 -4 11 2 6 23 -10 38 -12 115 -4 139 11 33 -4 57 -24 38z"/>
<path d="M336 428 c-51 -115 -85 -198 -81 -198 2 0 24 9 48 19 25 11 48 17 51
14 3 -4 6 -1 6 5 0 7 6 12 13 12 20 0 137 52 137 62 0 4 -5 8 -10 8 -6 0 -40
30 -75 66 l-65 66 -24 -54z"/>
</g>
</svg>
